<?xml version="1.0" encoding="UTF-8" ?>
<svg version="1.1" width="16" height="16" xmlns="http://www.w3.org/2000/svg" shape-rendering="crispEdges">
<rect x="8" y="2" width="1" height="1" fill="#773F00" />
<rect x="9" y="2" width="1" height="1" fill="#633500" />
<rect x="6" y="3" width="1" height="1" fill="#773F00" />
<rect x="7" y="3" width="1" height="1" fill="#633500" />
<rect x="8" y="3" width="1" height="1" fill="#AA5B00" />
<rect x="9" y="3" width="1" height="1" fill="#633500" />
<rect x="10" y="3" width="1" height="1" fill="#773F00" />
<rect x="13" y="3" width="1" height="1" fill="#773F00" opacity="0.149020" />
<rect x="14" y="3" width="1" height="1" fill="#773F00" opacity="0.007843" />
<rect x="6" y="4" width="1" height="1" fill="#633500" />
<rect x="7" y="4" width="1" height="1" fill="#633500" />
<rect x="8" y="4" width="1" height="1" fill="#773F00" />
<rect x="9" y="4" width="1" height="1" fill="#633500" />
<rect x="10" y="4" width="1" height="1" fill="#633500" />
<rect x="11" y="4" width="1" height="1" fill="#442400" />
<rect x="4" y="5" width="1" height="1" fill="#AA5B00" />
<rect x="5" y="5" width="1" height="1" fill="#753E00" />
<rect x="6" y="5" width="1" height="1" fill="#AA5B00" />
<rect x="7" y="5" width="1" height="1" fill="#773F00" />
<rect x="8" y="5" width="1" height="1" fill="#633500" />
<rect x="9" y="5" width="1" height="1" fill="#763F00" />
<rect x="10" y="5" width="1" height="1" fill="#AA5B00" />
<rect x="11" y="5" width="1" height="1" fill="#633500" />
<rect x="2" y="6" width="1" height="1" fill="#753E00" />
<rect x="3" y="6" width="1" height="1" fill="#AA5B00" />
<rect x="4" y="6" width="1" height="1" fill="#442400" />
<rect x="5" y="6" width="1" height="1" fill="#633500" />
<rect x="6" y="6" width="1" height="1" fill="#773F00" />
<rect x="7" y="6" width="1" height="1" fill="#633500" />
<rect x="8" y="6" width="1" height="1" fill="#AA5B00" />
<rect x="9" y="6" width="1" height="1" fill="#753E00" />
<rect x="10" y="6" width="1" height="1" fill="#633500" />
<rect x="11" y="6" width="1" height="1" fill="#633500" />
<rect x="12" y="6" width="1" height="1" fill="#442400" />
<rect x="13" y="6" width="1" height="1" fill="#773F00" />
<rect x="1" y="7" width="1" height="1" fill="#50935F" />
<rect x="2" y="7" width="1" height="1" fill="#442400" />
<rect x="3" y="7" width="1" height="1" fill="#633500" />
<rect x="4" y="7" width="1" height="1" fill="#773F00" />
<rect x="5" y="7" width="1" height="1" fill="#442400" />
<rect x="6" y="7" width="1" height="1" fill="#633500" />
<rect x="7" y="7" width="1" height="1" fill="#773F00" />
<rect x="8" y="7" width="1" height="1" fill="#773F00" />
<rect x="9" y="7" width="1" height="1" fill="#442400" />
<rect x="10" y="7" width="1" height="1" fill="#633500" />
<rect x="11" y="7" width="1" height="1" fill="#773F00" />
<rect x="12" y="7" width="1" height="1" fill="#633500" />
<rect x="13" y="7" width="1" height="1" fill="#442400" />
<rect x="14" y="7" width="1" height="1" fill="#325C3D" />
<rect x="1" y="8" width="1" height="1" fill="#50935F" />
<rect x="2" y="8" width="1" height="1" fill="#50935F" />
<rect x="3" y="8" width="1" height="1" fill="#50935F" />
<rect x="4" y="8" width="1" height="1" fill="#442400" />
<rect x="5" y="8" width="1" height="1" fill="#633500" />
<rect x="6" y="8" width="1" height="1" fill="#442400" />
<rect x="7" y="8" width="1" height="1" fill="#442400" />
<rect x="8" y="8" width="1" height="1" fill="#442400" />
<rect x="9" y="8" width="1" height="1" fill="#633500" />
<rect x="10" y="8" width="1" height="1" fill="#442400" />
<rect x="11" y="8" width="1" height="1" fill="#442400" />
<rect x="12" y="8" width="1" height="1" fill="#3A6C46" />
<rect x="13" y="8" width="1" height="1" fill="#3A6C46" />
<rect x="14" y="8" width="1" height="1" fill="#325C3D" />
<rect x="1" y="9" width="1" height="1" fill="#3A6C43" />
<rect x="2" y="9" width="1" height="1" fill="#3A6C43" />
<rect x="3" y="9" width="1" height="1" fill="#50935F" />
<rect x="4" y="9" width="1" height="1" fill="#3A6C46" />
<rect x="5" y="9" width="1" height="1" fill="#3A6C46" />
<rect x="6" y="9" width="1" height="1" fill="#3A6C46" />
<rect x="7" y="9" width="1" height="1" fill="#3A6C46" />
<rect x="8" y="9" width="1" height="1" fill="#3A6C46" />
<rect x="9" y="9" width="1" height="1" fill="#3A6C46" />
<rect x="10" y="9" width="1" height="1" fill="#3A6C46" />
<rect x="11" y="9" width="1" height="1" fill="#3A6C46" />
<rect x="12" y="9" width="1" height="1" fill="#3A6C46" />
<rect x="13" y="9" width="1" height="1" fill="#325C3D" />
<rect x="14" y="9" width="1" height="1" fill="#325C3D" />
<rect x="1" y="10" width="1" height="1" fill="#50935F" />
<rect x="2" y="10" width="1" height="1" fill="#50935F" />
<rect x="3" y="10" width="1" height="1" fill="#325C3D" />
<rect x="4" y="10" width="1" height="1" fill="#325C3D" />
<rect x="5" y="10" width="1" height="1" fill="#325C3D" />
<rect x="6" y="10" width="1" height="1" fill="#325C3D" />
<rect x="7" y="10" width="1" height="1" fill="#325C3D" />
<rect x="8" y="10" width="1" height="1" fill="#325C3D" />
<rect x="9" y="10" width="1" height="1" fill="#325C3D" />
<rect x="10" y="10" width="1" height="1" fill="#325C3D" />
<rect x="11" y="10" width="1" height="1" fill="#325C3D" />
<rect x="12" y="10" width="1" height="1" fill="#325C3D" />
<rect x="13" y="10" width="1" height="1" fill="#3A6C46" />
<rect x="14" y="10" width="1" height="1" fill="#325C3D" />
<rect x="1" y="11" width="1" height="1" fill="#50935F" />
<rect x="2" y="11" width="1" height="1" fill="#3A6C46" />
<rect x="3" y="11" width="1" height="1" fill="#3A6C46" />
<rect x="4" y="11" width="1" height="1" fill="#3A6C46" />
<rect x="5" y="11" width="1" height="1" fill="#3A6C46" />
<rect x="6" y="11" width="1" height="1" fill="#3A6C46" />
<rect x="7" y="11" width="1" height="1" fill="#3A6C46" />
<rect x="8" y="11" width="1" height="1" fill="#3A6C46" />
<rect x="9" y="11" width="1" height="1" fill="#3A6C46" />
<rect x="10" y="11" width="1" height="1" fill="#3A6C46" />
<rect x="11" y="11" width="1" height="1" fill="#3A6C46" />
<rect x="12" y="11" width="1" height="1" fill="#3A6C46" />
<rect x="13" y="11" width="1" height="1" fill="#3A6C46" />
<rect x="14" y="11" width="1" height="1" fill="#325C3D" />
<rect x="1" y="12" width="1" height="1" fill="#3A6C46" />
<rect x="2" y="12" width="1" height="1" fill="#3A6C46" />
<rect x="3" y="12" width="1" height="1" fill="#3A6C46" />
<rect x="4" y="12" width="1" height="1" fill="#3A6C46" />
<rect x="5" y="12" width="1" height="1" fill="#3A6C46" />
<rect x="6" y="12" width="1" height="1" fill="#5AA5A1" />
<rect x="7" y="12" width="1" height="1" fill="#5AA59E" />
<rect x="8" y="12" width="1" height="1" fill="#5AA5A1" />
<rect x="9" y="12" width="1" height="1" fill="#5AA5A5" />
<rect x="10" y="12" width="1" height="1" fill="#3A6C46" />
<rect x="11" y="12" width="1" height="1" fill="#3A6C46" />
<rect x="12" y="12" width="1" height="1" fill="#3A6C46" />
<rect x="13" y="12" width="1" height="1" fill="#3A6C46" />
<rect x="14" y="12" width="1" height="1" fill="#325C3D" />
<rect x="1" y="13" width="1" height="1" fill="#3A6C46" opacity="0.227451" />
<rect x="2" y="13" width="1" height="1" fill="#325C3D" />
<rect x="3" y="13" width="1" height="1" fill="#325C3D" />
<rect x="4" y="13" width="1" height="1" fill="#3A6C46" />
<rect x="5" y="13" width="1" height="1" fill="#3A6C46" />
<rect x="6" y="13" width="1" height="1" fill="#5AA59E" />
<rect x="7" y="13" width="1" height="1" fill="#5AA5A1" />
<rect x="8" y="13" width="1" height="1" fill="#5AA5A5" />
<rect x="9" y="13" width="1" height="1" fill="#5AA5A5" />
<rect x="10" y="13" width="1" height="1" fill="#3A6C46" />
<rect x="11" y="13" width="1" height="1" fill="#3A6C46" />
<rect x="12" y="13" width="1" height="1" fill="#325C3D" />
<rect x="13" y="13" width="1" height="1" fill="#325C3D" />
<rect x="14" y="13" width="1" height="1" fill="#3A6C46" opacity="0.227451" />
<rect x="3" y="14" width="1" height="1" fill="#3A6C46" opacity="0.227451" />
<rect x="4" y="14" width="1" height="1" fill="#325C3D" />
<rect x="5" y="14" width="1" height="1" fill="#325C3D" />
<rect x="6" y="14" width="1" height="1" fill="#325C3D" />
<rect x="7" y="14" width="1" height="1" fill="#325C3D" />
<rect x="8" y="14" width="1" height="1" fill="#325C3D" />
<rect x="9" y="14" width="1" height="1" fill="#325C3D" />
<rect x="10" y="14" width="1" height="1" fill="#325C3D" />
<rect x="11" y="14" width="1" height="1" fill="#325C3D" />
<rect x="12" y="14" width="1" height="1" fill="#3A6C46" opacity="0.227451" />
</svg>